# xmcd CD database file
#
# Track frame offsets:
#	150
#	16525
#	32725
#	58786
#
# Disc length: 1495 seconds
#
# Revision: 3
# Processed by: cddbd v1.5.2PL0 Copyright (c) Steve Scherf et al.
# Submitted via: CDex 1.70beta2
#
DISCID=2505d504
DTITLE=Sting - Send Your Love (Australian Import)
DYEAR=2003
DGENRE=Jazz
TTITLE0=Send your love (Radio Edit)
TTITLE1=Moon over Bourbon Street (Cornelius Mix)
TTITLE2=Send your love (Dave Aude Remix)
TTITLE3=Send Your Love - The Video
EXTD=YEAR: 2003
EXTT0=
EXTT1=
EXTT2=
EXTT3=
PLAYORDER=
